<svg width="23" height="23" viewBox="0 0 23 23" fill="none" xmlns="http://www.w3.org/2000/svg">
<path d="M20.6809 9.39917H1.51331C0.677959 9.39917 0 10.101 0 10.9657V12.0106C0 12.8753 0.677959 13.5771 1.51331 13.5771H20.6824C21.5177 13.5771 22.1957 12.8753 22.1957 12.0106V10.9657C22.1942 10.0994 21.5177 9.39917 20.6809 9.39917Z" fill="black"/>
<path d="M9.07983 1.56654V21.4099C9.07983 22.2746 9.75779 22.9764 10.5931 22.9764H11.6025C12.4379 22.9764 13.1158 22.2746 13.1158 21.4099V1.56654C13.1158 0.701807 12.4379 0 11.6025 0H10.5931C9.75632 0 9.07983 0.700277 9.07983 1.56654Z" fill="black"/>
</svg>
