<svg width="53" height="51" viewBox="0 0 53 51" fill="none" xmlns="http://www.w3.org/2000/svg">
<g clip-path="url(#clip0)">
<path d="M42.3115 50.1356H9.5793C4.15558 50.1356 -0.240356 45.9055 -0.240356 40.6865V9.18946C-0.240356 3.97041 4.15558 -0.259644 9.5793 -0.259644H42.3115C47.7352 -0.259644 52.1312 3.97041 52.1312 9.18946V40.6865C52.1312 45.9055 47.7352 50.1356 42.3115 50.1356Z" fill="black" fill-opacity="0.16"/>
<path d="M16.8509 24.9764C18.2832 24.9764 19.4485 23.8551 19.4485 22.4768C19.4485 21.0986 18.2832 19.9772 16.8509 19.9772C15.4186 19.9772 14.2532 21.0986 14.2532 22.4768C14.2532 23.8551 15.4186 24.9764 16.8509 24.9764Z" fill="#505050"/>
<path d="M37.6377 17.4757H23.8857L21.668 15.3418C21.4244 15.1074 21.0932 14.9761 20.7502 14.9761H14.2532C12.1038 14.9761 10.3558 16.6582 10.3558 18.7265V33.7279C10.3558 35.7962 12.1038 37.4782 14.2532 37.4782H37.6377C39.7871 37.4782 41.5351 35.7962 41.5351 33.7279V21.2261C41.5351 19.1578 39.7871 17.4757 37.6377 17.4757ZM14.2532 17.4757H20.2123L22.43 19.6097C22.6736 19.8441 23.0048 19.9753 23.3478 19.9753H37.6377C38.3548 19.9753 38.9375 20.536 38.9375 21.2261V29.9006L32.1034 23.3244C31.2147 22.4693 29.7688 22.4693 28.8802 23.3244L22.6969 29.2743L21.06 27.6992C20.1714 26.8441 18.7255 26.8441 17.8369 27.6992L12.9515 32.4002V18.7265C12.9534 18.0364 13.5361 17.4757 14.2532 17.4757V17.4757Z" fill="black"/>
</g>
<defs>
<clipPath id="clip0">
<rect width="53" height="51" fill="white"/>
</clipPath>
</defs>
</svg>
