<svg width="51" height="50" viewBox="0 0 51 50" fill="none" xmlns="http://www.w3.org/2000/svg">
<path d="M41.4375 50H9.5625C4.28081 50 0 45.8031 0 40.625V9.375C0 4.19688 4.28081 0 9.5625 0H41.4375C46.7192 0 51 4.19688 51 9.375V40.625C51 45.8031 46.7192 50 41.4375 50Z" fill="black" fill-opacity="0.16"/>
<path d="M24.1724 34.8969C21.683 34.8969 19.6573 32.9109 19.6573 30.4703V15.6469L14.5254 16.7984C13.2568 17.125 12.4966 18.4078 12.8313 19.6625L17.2316 35.7719C17.5249 36.8125 18.5003 37.5031 19.5473 37.5031C19.7434 37.5031 19.9426 37.4781 20.1402 37.4281L30.8518 34.8984H24.1724V34.8969Z" fill="black"/>
<path d="M26.5631 21.875C27.7345 21.875 28.6875 20.9406 28.6875 19.7922C28.6875 18.6437 27.7345 17.7094 26.5631 17.7094C25.3917 17.7094 24.4386 18.6437 24.4386 19.7922C24.4386 20.9406 25.3901 21.875 26.5631 21.875Z" fill="black" fill-opacity="0.16"/>
<path d="M38.25 15.625C38.25 13.8984 36.8236 12.5 35.0625 12.5H33.8864H24.437C22.6759 12.5 21.2495 13.8984 21.2495 15.625V30.2078C21.2495 31.9344 22.6759 33.3328 24.437 33.3328H35.0625C36.8236 33.3328 38.25 31.9344 38.25 30.2078V15.625ZM24.437 14.5844H35.0625C35.649 14.5844 36.1256 15.05 36.1256 15.6266V22.3344L35.3175 21.5422C34.5892 20.8281 33.4098 20.8281 32.6815 21.5422L27.6245 26.5L26.2858 25.1875C25.5574 24.4734 24.378 24.4734 23.6497 25.1875L23.374 25.4578V15.625C23.3756 15.05 23.8505 14.5844 24.437 14.5844Z" fill="black"/>
</svg>
