<svg width="51" height="50" viewBox="0 0 51 50" fill="none" xmlns="http://www.w3.org/2000/svg">
<path d="M41.4375 50H9.5625C4.28087 50 0 45.8031 0 40.625V9.375C0 4.19693 4.28087 0 9.5625 0H41.4375C46.7191 0 51 4.19693 51 9.375V40.625C51 45.8031 46.7191 50 41.4375 50Z" fill="black" fill-opacity="0.1"/>
<path d="M37.1489 27.7874C37.1473 27.7859 37.1454 27.7843 37.1438 27.7828L35.5104 26.3111C35.566 25.8671 35.5948 25.428 35.5948 25C35.5948 24.572 35.566 24.1329 35.5104 23.6889L37.1489 22.2126C37.689 21.714 37.8135 20.9217 37.4469 20.2797L35.6442 17.2234C35.2824 16.592 34.4983 16.2937 33.7781 16.5127L31.6583 17.1688C30.9396 16.6187 30.1634 16.1781 29.3474 15.8531L28.858 13.7188C28.6953 13.0123 28.0436 12.5 27.3074 12.5H23.6942C22.9565 12.5 22.3063 13.0123 22.1452 13.7188L21.6542 15.8546C20.8382 16.1797 20.0639 16.6203 19.3433 17.1703L17.2204 16.5142C16.5048 16.2968 15.7177 16.5939 15.3605 17.2188L13.55 20.2873C13.1866 20.9236 13.3111 21.714 13.8562 22.2172L15.4897 23.6889C15.4356 24.1329 15.4068 24.572 15.4068 25C15.4068 25.428 15.4356 25.8671 15.4912 26.3111L13.8527 27.7874C13.3127 28.286 13.1881 29.0783 13.5547 29.7188L15.3574 32.7751C15.7192 33.4061 16.5017 33.7048 17.2235 33.4858L19.3433 32.8297C20.062 33.3797 20.8382 33.8203 21.6542 34.1454L22.1437 36.2797C22.3063 36.9877 22.9565 37.5 23.6942 37.5H27.3074C28.0451 37.5 28.6953 36.9877 28.8564 36.2812L29.3474 34.1454C30.1634 33.8203 30.9381 33.3797 31.6583 32.8297L33.7812 33.4858C34.4983 33.7063 35.2839 33.4061 35.6411 32.7812L37.4516 29.7127C37.8135 29.0783 37.689 28.286 37.1489 27.7874ZM25.5 30.2078C22.5709 30.2078 20.188 27.8717 20.188 25C20.188 22.1283 22.5709 19.7922 25.5 19.7922C28.4292 19.7922 30.812 22.1283 30.812 25C30.812 27.8717 28.4292 30.2078 25.5 30.2078Z" fill="black" fill-opacity="0.5"/>
</svg>
